<?xml version="1.0" encoding="utf-8" standalone="no"?>
<!DOCTYPE svg PUBLIC "-//W3C//DTD SVG 1.1//EN"
  "http://www.w3.org/Graphics/SVG/1.1/DTD/svg11.dtd">
<svg xmlns:xlink="http://www.w3.org/1999/xlink" width="611.51125pt" height="358.301438pt" viewBox="0 0 611.51125 358.301438" xmlns="http://www.w3.org/2000/svg" version="1.1">
 <metadata>
  <rdf:RDF xmlns:dc="http://purl.org/dc/elements/1.1/" xmlns:cc="http://creativecommons.org/ns#" xmlns:rdf="http://www.w3.org/1999/02/22-rdf-syntax-ns#">
   <cc:Work>
    <dc:type rdf:resource="http://purl.org/dc/dcmitype/StillImage"/>
    <dc:date>2025-08-17T12:08:28.866151</dc:date>
    <dc:format>image/svg+xml</dc:format>
    <dc:creator>
     <cc:Agent>
      <dc:title>Matplotlib v3.10.0, https://matplotlib.org/</dc:title>
     </cc:Agent>
    </dc:creator>
   </cc:Work>
  </rdf:RDF>
 </metadata>
 <defs>
  <style type="text/css">*{stroke-linejoin: round; stroke-linecap: butt}</style>
 </defs>
 <g id="figure_1">
  <g id="patch_1">
   <path d="M 0 358.301438 
L 611.51125 358.301438 
L 611.51125 0 
L 0 0 
z
" style="fill: #ffffff"/>
  </g>
  <g id="axes_1">
   <g id="patch_2">
    <path d="M 46.31125 315.34175 
L 604.31125 315.34175 
L 604.31125 38.14175 
L 46.31125 38.14175 
z
" style="fill: #e5e5e5"/>
   </g>
   <g id="matplotlib.axis_1">
    <g id="xtick_1">
     <g id="line2d_1">
      <path d="M 56.7551 315.34175 
L 56.7551 38.14175 
" clip-path="url(#p398950f877)" style="fill: none; stroke: #ffffff; stroke-linecap: round"/>
     </g>
     <g id="text_1">
      <!-- 15 -->
      <g style="fill: #555555" transform="translate(49.75635 333.200031) scale(0.11 -0.11)">
       <defs>
        <path id="DejaVuSans-31" d="M 794 531 
L 1825 531 
L 1825 4091 
L 703 3866 
L 703 4441 
L 1819 4666 
L 2450 4666 
L 2450 531 
L 3481 531 
L 3481 0 
L 794 0 
L 794 531 
z
" transform="scale(0.015625)"/>
        <path id="DejaVuSans-35" d="M 691 4666 
L 3169 4666 
L 3169 4134 
L 1269 4134 
L 1269 2991 
Q 1406 3038 1543 3061 
Q 1681 3084 1819 3084 
Q 2600 3084 3056 2656 
Q 3513 2228 3513 1497 
Q 3513 744 3044 326 
Q 2575 -91 1722 -91 
Q 1428 -91 1123 -41 
Q 819 9 494 109 
L 494 744 
Q 775 591 1075 516 
Q 1375 441 1709 441 
Q 2250 441 2565 725 
Q 2881 1009 2881 1497 
Q 2881 1984 2565 2268 
Q 2250 2553 1709 2553 
Q 1456 2553 1204 2497 
Q 953 2441 691 2322 
L 691 4666 
z
" transform="scale(0.015625)"/>
       </defs>
       <use xlink:href="#DejaVuSans-31"/>
       <use xlink:href="#DejaVuSans-35" transform="translate(63.623047 0)"/>
      </g>
     </g>
    </g>
    <g id="xtick_2">
     <g id="line2d_2">
      <path d="M 131.354031 315.34175 
L 131.354031 38.14175 
" clip-path="url(#p398950f877)" style="fill: none; stroke: #ffffff; stroke-linecap: round"/>
     </g>
     <g id="text_2">
      <!-- 20 -->
      <g style="fill: #555555" transform="translate(124.355281 333.200031) scale(0.11 -0.11)">
       <defs>
        <path id="DejaVuSans-32" d="M 1228 531 
L 3431 531 
L 3431 0 
L 469 0 
L 469 531 
Q 828 903 1448 1529 
Q 2069 2156 2228 2338 
Q 2531 2678 2651 2914 
Q 2772 3150 2772 3378 
Q 2772 3750 2511 3984 
Q 2250 4219 1831 4219 
Q 1534 4219 1204 4116 
Q 875 4013 500 3803 
L 500 4441 
Q 881 4594 1212 4672 
Q 1544 4750 1819 4750 
Q 2544 4750 2975 4387 
Q 3406 4025 3406 3419 
Q 3406 3131 3298 2873 
Q 3191 2616 2906 2266 
Q 2828 2175 2409 1742 
Q 1991 1309 1228 531 
z
" transform="scale(0.015625)"/>
        <path id="DejaVuSans-30" d="M 2034 4250 
Q 1547 4250 1301 3770 
Q 1056 3291 1056 2328 
Q 1056 1369 1301 889 
Q 1547 409 2034 409 
Q 2525 409 2770 889 
Q 3016 1369 3016 2328 
Q 3016 3291 2770 3770 
Q 2525 4250 2034 4250 
z
M 2034 4750 
Q 2819 4750 3233 4129 
Q 3647 3509 3647 2328 
Q 3647 1150 3233 529 
Q 2819 -91 2034 -91 
Q 1250 -91 836 529 
Q 422 1150 422 2328 
Q 422 3509 836 4129 
Q 1250 4750 2034 4750 
z
" transform="scale(0.015625)"/>
       </defs>
       <use xlink:href="#DejaVuSans-32"/>
       <use xlink:href="#DejaVuSans-30" transform="translate(63.623047 0)"/>
      </g>
     </g>
    </g>
    <g id="xtick_3">
     <g id="line2d_3">
      <path d="M 205.952961 315.34175 
L 205.952961 38.14175 
" clip-path="url(#p398950f877)" style="fill: none; stroke: #ffffff; stroke-linecap: round"/>
     </g>
     <g id="text_3">
      <!-- 25 -->
      <g style="fill: #555555" transform="translate(198.954211 333.200031) scale(0.11 -0.11)">
       <use xlink:href="#DejaVuSans-32"/>
       <use xlink:href="#DejaVuSans-35" transform="translate(63.623047 0)"/>
      </g>
     </g>
    </g>
    <g id="xtick_4">
     <g id="line2d_4">
      <path d="M 280.551892 315.34175 
L 280.551892 38.14175 
" clip-path="url(#p398950f877)" style="fill: none; stroke: #ffffff; stroke-linecap: round"/>
     </g>
     <g id="text_4">
      <!-- 30 -->
      <g style="fill: #555555" transform="translate(273.553142 333.200031) scale(0.11 -0.11)">
       <defs>
        <path id="DejaVuSans-33" d="M 2597 2516 
Q 3050 2419 3304 2112 
Q 3559 1806 3559 1356 
Q 3559 666 3084 287 
Q 2609 -91 1734 -91 
Q 1441 -91 1130 -33 
Q 819 25 488 141 
L 488 750 
Q 750 597 1062 519 
Q 1375 441 1716 441 
Q 2309 441 2620 675 
Q 2931 909 2931 1356 
Q 2931 1769 2642 2001 
Q 2353 2234 1838 2234 
L 1294 2234 
L 1294 2753 
L 1863 2753 
Q 2328 2753 2575 2939 
Q 2822 3125 2822 3475 
Q 2822 3834 2567 4026 
Q 2313 4219 1838 4219 
Q 1578 4219 1281 4162 
Q 984 4106 628 3988 
L 628 4550 
Q 988 4650 1302 4700 
Q 1616 4750 1894 4750 
Q 2613 4750 3031 4423 
Q 3450 4097 3450 3541 
Q 3450 3153 3228 2886 
Q 3006 2619 2597 2516 
z
" transform="scale(0.015625)"/>
       </defs>
       <use xlink:href="#DejaVuSans-33"/>
       <use xlink:href="#DejaVuSans-30" transform="translate(63.623047 0)"/>
      </g>
     </g>
    </g>
    <g id="xtick_5">
     <g id="line2d_5">
      <path d="M 355.150822 315.34175 
L 355.150822 38.14175 
" clip-path="url(#p398950f877)" style="fill: none; stroke: #ffffff; stroke-linecap: round"/>
     </g>
     <g id="text_5">
      <!-- 35 -->
      <g style="fill: #555555" transform="translate(348.152072 333.200031) scale(0.11 -0.11)">
       <use xlink:href="#DejaVuSans-33"/>
       <use xlink:href="#DejaVuSans-35" transform="translate(63.623047 0)"/>
      </g>
     </g>
    </g>
    <g id="xtick_6">
     <g id="line2d_6">
      <path d="M 429.749753 315.34175 
L 429.749753 38.14175 
" clip-path="url(#p398950f877)" style="fill: none; stroke: #ffffff; stroke-linecap: round"/>
     </g>
     <g id="text_6">
      <!-- 40 -->
      <g style="fill: #555555" transform="translate(422.751003 333.200031) scale(0.11 -0.11)">
       <defs>
        <path id="DejaVuSans-34" d="M 2419 4116 
L 825 1625 
L 2419 1625 
L 2419 4116 
z
M 2253 4666 
L 3047 4666 
L 3047 1625 
L 3713 1625 
L 3713 1100 
L 3047 1100 
L 3047 0 
L 2419 0 
L 2419 1100 
L 313 1100 
L 313 1709 
L 2253 4666 
z
" transform="scale(0.015625)"/>
       </defs>
       <use xlink:href="#DejaVuSans-34"/>
       <use xlink:href="#DejaVuSans-30" transform="translate(63.623047 0)"/>
      </g>
     </g>
    </g>
    <g id="xtick_7">
     <g id="line2d_7">
      <path d="M 504.348683 315.34175 
L 504.348683 38.14175 
" clip-path="url(#p398950f877)" style="fill: none; stroke: #ffffff; stroke-linecap: round"/>
     </g>
     <g id="text_7">
      <!-- 45 -->
      <g style="fill: #555555" transform="translate(497.349933 333.200031) scale(0.11 -0.11)">
       <use xlink:href="#DejaVuSans-34"/>
       <use xlink:href="#DejaVuSans-35" transform="translate(63.623047 0)"/>
      </g>
     </g>
    </g>
    <g id="xtick_8">
     <g id="line2d_8">
      <path d="M 578.947614 315.34175 
L 578.947614 38.14175 
" clip-path="url(#p398950f877)" style="fill: none; stroke: #ffffff; stroke-linecap: round"/>
     </g>
     <g id="text_8">
      <!-- 50 -->
      <g style="fill: #555555" transform="translate(571.948864 333.200031) scale(0.11 -0.11)">
       <use xlink:href="#DejaVuSans-35"/>
       <use xlink:href="#DejaVuSans-30" transform="translate(63.623047 0)"/>
      </g>
     </g>
    </g>
    <g id="text_9">
     <!-- Возраст -->
     <g style="fill: #555555" transform="translate(300.053125 348.605813) scale(0.12 -0.12)">
      <defs>
       <path id="DejaVuSans-412" d="M 1259 2228 
L 1259 519 
L 2272 519 
Q 2781 519 3026 730 
Q 3272 941 3272 1375 
Q 3272 1813 3026 2020 
Q 2781 2228 2272 2228 
L 1259 2228 
z
M 1259 4147 
L 1259 2741 
L 2194 2741 
Q 2656 2741 2882 2914 
Q 3109 3088 3109 3444 
Q 3109 3797 2882 3972 
Q 2656 4147 2194 4147 
L 1259 4147 
z
M 628 4666 
L 2241 4666 
Q 2963 4666 3353 4366 
Q 3744 4066 3744 3513 
Q 3744 3084 3544 2831 
Q 3344 2578 2956 2516 
Q 3422 2416 3680 2098 
Q 3938 1781 3938 1306 
Q 3938 681 3513 340 
Q 3088 0 2303 0 
L 628 0 
L 628 4666 
z
" transform="scale(0.015625)"/>
       <path id="DejaVuSans-43e" d="M 1959 3097 
Q 1497 3097 1228 2736 
Q 959 2375 959 1747 
Q 959 1119 1226 758 
Q 1494 397 1959 397 
Q 2419 397 2687 759 
Q 2956 1122 2956 1747 
Q 2956 2369 2687 2733 
Q 2419 3097 1959 3097 
z
M 1959 3584 
Q 2709 3584 3137 3096 
Q 3566 2609 3566 1747 
Q 3566 888 3137 398 
Q 2709 -91 1959 -91 
Q 1206 -91 779 398 
Q 353 888 353 1747 
Q 353 2609 779 3096 
Q 1206 3584 1959 3584 
z
" transform="scale(0.015625)"/>
       <path id="DejaVuSans-437" d="M 2206 1888 
Q 2594 1813 2809 1584 
Q 3025 1356 3025 1019 
Q 3025 478 2622 193 
Q 2219 -91 1475 -91 
Q 1225 -91 961 -47 
Q 697 -3 416 84 
L 416 619 
Q 638 503 903 445 
Q 1169 388 1459 388 
Q 1931 388 2195 563 
Q 2459 738 2459 1019 
Q 2459 1294 2225 1461 
Q 1991 1628 1563 1628 
L 1100 1628 
L 1100 2103 
L 1584 2103 
Q 1947 2103 2158 2242 
Q 2369 2381 2369 2600 
Q 2369 2800 2151 2944 
Q 1934 3088 1563 3088 
Q 1341 3088 1089 3047 
Q 838 3006 534 2916 
L 534 3438 
Q 841 3513 1106 3550 
Q 1372 3588 1609 3588 
Q 2222 3588 2576 3342 
Q 2931 3097 2931 2656 
Q 2931 2366 2743 2164 
Q 2556 1963 2206 1888 
z
" transform="scale(0.015625)"/>
       <path id="DejaVuSans-440" d="M 1159 525 
L 1159 -1331 
L 581 -1331 
L 581 3500 
L 1159 3500 
L 1159 2969 
Q 1341 3281 1617 3432 
Q 1894 3584 2278 3584 
Q 2916 3584 3314 3078 
Q 3713 2572 3713 1747 
Q 3713 922 3314 415 
Q 2916 -91 2278 -91 
Q 1894 -91 1617 61 
Q 1341 213 1159 525 
z
M 3116 1747 
Q 3116 2381 2855 2742 
Q 2594 3103 2138 3103 
Q 1681 3103 1420 2742 
Q 1159 2381 1159 1747 
Q 1159 1113 1420 752 
Q 1681 391 2138 391 
Q 2594 391 2855 752 
Q 3116 1113 3116 1747 
z
" transform="scale(0.015625)"/>
       <path id="DejaVuSans-430" d="M 2194 1759 
Q 1497 1759 1228 1600 
Q 959 1441 959 1056 
Q 959 750 1161 570 
Q 1363 391 1709 391 
Q 2188 391 2477 730 
Q 2766 1069 2766 1631 
L 2766 1759 
L 2194 1759 
z
M 3341 1997 
L 3341 0 
L 2766 0 
L 2766 531 
Q 2569 213 2275 61 
Q 1981 -91 1556 -91 
Q 1019 -91 701 211 
Q 384 513 384 1019 
Q 384 1609 779 1909 
Q 1175 2209 1959 2209 
L 2766 2209 
L 2766 2266 
Q 2766 2663 2505 2880 
Q 2244 3097 1772 3097 
Q 1472 3097 1187 3025 
Q 903 2953 641 2809 
L 641 3341 
Q 956 3463 1253 3523 
Q 1550 3584 1831 3584 
Q 2591 3584 2966 3190 
Q 3341 2797 3341 1997 
z
" transform="scale(0.015625)"/>
       <path id="DejaVuSans-441" d="M 3122 3366 
L 3122 2828 
Q 2878 2963 2633 3030 
Q 2388 3097 2138 3097 
Q 1578 3097 1268 2742 
Q 959 2388 959 1747 
Q 959 1106 1268 751 
Q 1578 397 2138 397 
Q 2388 397 2633 464 
Q 2878 531 3122 666 
L 3122 134 
Q 2881 22 2623 -34 
Q 2366 -91 2075 -91 
Q 1284 -91 818 406 
Q 353 903 353 1747 
Q 353 2603 823 3093 
Q 1294 3584 2113 3584 
Q 2378 3584 2631 3529 
Q 2884 3475 3122 3366 
z
" transform="scale(0.015625)"/>
       <path id="DejaVuSans-442" d="M 188 3500 
L 3541 3500 
L 3541 3041 
L 2147 3041 
L 2147 0 
L 1581 0 
L 1581 3041 
L 188 3041 
L 188 3500 
z
" transform="scale(0.015625)"/>
      </defs>
      <use xlink:href="#DejaVuSans-412"/>
      <use xlink:href="#DejaVuSans-43e" transform="translate(68.603516 0)"/>
      <use xlink:href="#DejaVuSans-437" transform="translate(129.785156 0)"/>
      <use xlink:href="#DejaVuSans-440" transform="translate(182.958984 0)"/>
      <use xlink:href="#DejaVuSans-430" transform="translate(246.435547 0)"/>
      <use xlink:href="#DejaVuSans-441" transform="translate(307.714844 0)"/>
      <use xlink:href="#DejaVuSans-442" transform="translate(362.695312 0)"/>
     </g>
    </g>
   </g>
   <g id="matplotlib.axis_2">
    <g id="ytick_1">
     <g id="line2d_9">
      <path d="M 46.31125 315.34175 
L 604.31125 315.34175 
" clip-path="url(#p398950f877)" style="fill: none; stroke-dasharray: 3.7,1.6; stroke-dashoffset: 0; stroke: #ffffff; stroke-opacity: 0.3"/>
     </g>
     <g id="text_10">
      <!-- 0 -->
      <g style="fill: #555555" transform="translate(29.8125 319.520891) scale(0.11 -0.11)">
       <use xlink:href="#DejaVuSans-30"/>
      </g>
     </g>
    </g>
    <g id="ytick_2">
     <g id="line2d_10">
      <path d="M 46.31125 280.14175 
L 604.31125 280.14175 
" clip-path="url(#p398950f877)" style="fill: none; stroke-dasharray: 3.7,1.6; stroke-dashoffset: 0; stroke: #ffffff; stroke-opacity: 0.3"/>
     </g>
     <g id="text_11">
      <!-- 2 -->
      <g style="fill: #555555" transform="translate(29.8125 284.320891) scale(0.11 -0.11)">
       <use xlink:href="#DejaVuSans-32"/>
      </g>
     </g>
    </g>
    <g id="ytick_3">
     <g id="line2d_11">
      <path d="M 46.31125 244.94175 
L 604.31125 244.94175 
" clip-path="url(#p398950f877)" style="fill: none; stroke-dasharray: 3.7,1.6; stroke-dashoffset: 0; stroke: #ffffff; stroke-opacity: 0.3"/>
     </g>
     <g id="text_12">
      <!-- 4 -->
      <g style="fill: #555555" transform="translate(29.8125 249.120891) scale(0.11 -0.11)">
       <use xlink:href="#DejaVuSans-34"/>
      </g>
     </g>
    </g>
    <g id="ytick_4">
     <g id="line2d_12">
      <path d="M 46.31125 209.74175 
L 604.31125 209.74175 
" clip-path="url(#p398950f877)" style="fill: none; stroke-dasharray: 3.7,1.6; stroke-dashoffset: 0; stroke: #ffffff; stroke-opacity: 0.3"/>
     </g>
     <g id="text_13">
      <!-- 6 -->
      <g style="fill: #555555" transform="translate(29.8125 213.920891) scale(0.11 -0.11)">
       <defs>
        <path id="DejaVuSans-36" d="M 2113 2584 
Q 1688 2584 1439 2293 
Q 1191 2003 1191 1497 
Q 1191 994 1439 701 
Q 1688 409 2113 409 
Q 2538 409 2786 701 
Q 3034 994 3034 1497 
Q 3034 2003 2786 2293 
Q 2538 2584 2113 2584 
z
M 3366 4563 
L 3366 3988 
Q 3128 4100 2886 4159 
Q 2644 4219 2406 4219 
Q 1781 4219 1451 3797 
Q 1122 3375 1075 2522 
Q 1259 2794 1537 2939 
Q 1816 3084 2150 3084 
Q 2853 3084 3261 2657 
Q 3669 2231 3669 1497 
Q 3669 778 3244 343 
Q 2819 -91 2113 -91 
Q 1303 -91 875 529 
Q 447 1150 447 2328 
Q 447 3434 972 4092 
Q 1497 4750 2381 4750 
Q 2619 4750 2861 4703 
Q 3103 4656 3366 4563 
z
" transform="scale(0.015625)"/>
       </defs>
       <use xlink:href="#DejaVuSans-36"/>
      </g>
     </g>
    </g>
    <g id="ytick_5">
     <g id="line2d_13">
      <path d="M 46.31125 174.54175 
L 604.31125 174.54175 
" clip-path="url(#p398950f877)" style="fill: none; stroke-dasharray: 3.7,1.6; stroke-dashoffset: 0; stroke: #ffffff; stroke-opacity: 0.3"/>
     </g>
     <g id="text_14">
      <!-- 8 -->
      <g style="fill: #555555" transform="translate(29.8125 178.720891) scale(0.11 -0.11)">
       <defs>
        <path id="DejaVuSans-38" d="M 2034 2216 
Q 1584 2216 1326 1975 
Q 1069 1734 1069 1313 
Q 1069 891 1326 650 
Q 1584 409 2034 409 
Q 2484 409 2743 651 
Q 3003 894 3003 1313 
Q 3003 1734 2745 1975 
Q 2488 2216 2034 2216 
z
M 1403 2484 
Q 997 2584 770 2862 
Q 544 3141 544 3541 
Q 544 4100 942 4425 
Q 1341 4750 2034 4750 
Q 2731 4750 3128 4425 
Q 3525 4100 3525 3541 
Q 3525 3141 3298 2862 
Q 3072 2584 2669 2484 
Q 3125 2378 3379 2068 
Q 3634 1759 3634 1313 
Q 3634 634 3220 271 
Q 2806 -91 2034 -91 
Q 1263 -91 848 271 
Q 434 634 434 1313 
Q 434 1759 690 2068 
Q 947 2378 1403 2484 
z
M 1172 3481 
Q 1172 3119 1398 2916 
Q 1625 2713 2034 2713 
Q 2441 2713 2670 2916 
Q 2900 3119 2900 3481 
Q 2900 3844 2670 4047 
Q 2441 4250 2034 4250 
Q 1625 4250 1398 4047 
Q 1172 3844 1172 3481 
z
" transform="scale(0.015625)"/>
       </defs>
       <use xlink:href="#DejaVuSans-38"/>
      </g>
     </g>
    </g>
    <g id="ytick_6">
     <g id="line2d_14">
      <path d="M 46.31125 139.34175 
L 604.31125 139.34175 
" clip-path="url(#p398950f877)" style="fill: none; stroke-dasharray: 3.7,1.6; stroke-dashoffset: 0; stroke: #ffffff; stroke-opacity: 0.3"/>
     </g>
     <g id="text_15">
      <!-- 10 -->
      <g style="fill: #555555" transform="translate(22.81375 143.520891) scale(0.11 -0.11)">
       <use xlink:href="#DejaVuSans-31"/>
       <use xlink:href="#DejaVuSans-30" transform="translate(63.623047 0)"/>
      </g>
     </g>
    </g>
    <g id="ytick_7">
     <g id="line2d_15">
      <path d="M 46.31125 104.14175 
L 604.31125 104.14175 
" clip-path="url(#p398950f877)" style="fill: none; stroke-dasharray: 3.7,1.6; stroke-dashoffset: 0; stroke: #ffffff; stroke-opacity: 0.3"/>
     </g>
     <g id="text_16">
      <!-- 12 -->
      <g style="fill: #555555" transform="translate(22.81375 108.320891) scale(0.11 -0.11)">
       <use xlink:href="#DejaVuSans-31"/>
       <use xlink:href="#DejaVuSans-32" transform="translate(63.623047 0)"/>
      </g>
     </g>
    </g>
    <g id="ytick_8">
     <g id="line2d_16">
      <path d="M 46.31125 68.94175 
L 604.31125 68.94175 
" clip-path="url(#p398950f877)" style="fill: none; stroke-dasharray: 3.7,1.6; stroke-dashoffset: 0; stroke: #ffffff; stroke-opacity: 0.3"/>
     </g>
     <g id="text_17">
      <!-- 14 -->
      <g style="fill: #555555" transform="translate(22.81375 73.120891) scale(0.11 -0.11)">
       <use xlink:href="#DejaVuSans-31"/>
       <use xlink:href="#DejaVuSans-34" transform="translate(63.623047 0)"/>
      </g>
     </g>
    </g>
    <g id="text_18">
     <!-- Количество -->
     <g style="fill: #555555" transform="translate(16.318125 213.6455) rotate(-90) scale(0.12 -0.12)">
      <defs>
       <path id="DejaVuSans-41a" d="M 628 4666 
L 1259 4666 
L 1259 2359 
L 3516 4666 
L 4325 4666 
L 2522 2822 
L 4419 0 
L 3731 0 
L 2113 2403 
L 1259 1531 
L 1259 0 
L 628 0 
L 628 4666 
z
" transform="scale(0.015625)"/>
       <path id="DejaVuSans-43b" d="M 238 0 
L 238 478 
Q 806 566 981 959 
Q 1194 1513 1194 2928 
L 1194 3500 
L 3559 3500 
L 3559 0 
L 2984 0 
L 2984 3041 
L 1769 3041 
L 1769 2694 
Q 1769 1344 1494 738 
Q 1200 91 238 0 
z
" transform="scale(0.015625)"/>
       <path id="DejaVuSans-438" d="M 3578 3500 
L 3578 0 
L 3006 0 
L 3006 2809 
L 1319 0 
L 581 0 
L 581 3500 
L 1153 3500 
L 1153 697 
L 2838 3500 
L 3578 3500 
z
" transform="scale(0.015625)"/>
       <path id="DejaVuSans-447" d="M 2625 0 
L 2625 1472 
L 1553 1472 
Q 1075 1472 756 1769 
Q 469 2038 469 2613 
L 469 3500 
L 1044 3500 
L 1044 2666 
Q 1044 2300 1206 2116 
Q 1372 1931 1697 1931 
L 2625 1931 
L 2625 3500 
L 3200 3500 
L 3200 0 
L 2625 0 
z
" transform="scale(0.015625)"/>
       <path id="DejaVuSans-435" d="M 3597 1894 
L 3597 1613 
L 953 1613 
Q 991 1019 1311 708 
Q 1631 397 2203 397 
Q 2534 397 2845 478 
Q 3156 559 3463 722 
L 3463 178 
Q 3153 47 2828 -22 
Q 2503 -91 2169 -91 
Q 1331 -91 842 396 
Q 353 884 353 1716 
Q 353 2575 817 3079 
Q 1281 3584 2069 3584 
Q 2775 3584 3186 3129 
Q 3597 2675 3597 1894 
z
M 3022 2063 
Q 3016 2534 2758 2815 
Q 2500 3097 2075 3097 
Q 1594 3097 1305 2825 
Q 1016 2553 972 2059 
L 3022 2063 
z
" transform="scale(0.015625)"/>
       <path id="DejaVuSans-432" d="M 1156 1613 
L 1156 459 
L 1975 459 
Q 2369 459 2575 607 
Q 2781 756 2781 1038 
Q 2781 1319 2575 1466 
Q 2369 1613 1975 1613 
L 1156 1613 
z
M 1156 3041 
L 1156 2072 
L 1913 2072 
Q 2238 2072 2444 2201 
Q 2650 2331 2650 2563 
Q 2650 2794 2444 2917 
Q 2238 3041 1913 3041 
L 1156 3041 
z
M 581 3500 
L 1950 3500 
Q 2566 3500 2897 3275 
Q 3228 3050 3228 2634 
Q 3228 2313 3059 2123 
Q 2891 1934 2559 1888 
Q 2956 1813 3175 1575 
Q 3394 1338 3394 981 
Q 3394 513 3033 256 
Q 2672 0 2003 0 
L 581 0 
L 581 3500 
z
" transform="scale(0.015625)"/>
      </defs>
      <use xlink:href="#DejaVuSans-41a"/>
      <use xlink:href="#DejaVuSans-43e" transform="translate(70.996094 0)"/>
      <use xlink:href="#DejaVuSans-43b" transform="translate(132.177734 0)"/>
      <use xlink:href="#DejaVuSans-438" transform="translate(196.09375 0)"/>
      <use xlink:href="#DejaVuSans-447" transform="translate(261.083984 0)"/>
      <use xlink:href="#DejaVuSans-435" transform="translate(320.166016 0)"/>
      <use xlink:href="#DejaVuSans-441" transform="translate(381.689453 0)"/>
      <use xlink:href="#DejaVuSans-442" transform="translate(436.669922 0)"/>
      <use xlink:href="#DejaVuSans-432" transform="translate(494.921875 0)"/>
      <use xlink:href="#DejaVuSans-43e" transform="translate(553.857422 0)"/>
     </g>
    </g>
   </g>
   <g id="patch_3">
    <path d="M 71.674886 315.34175 
L 97.038523 315.34175 
L 97.038523 227.34175 
L 71.674886 227.34175 
z
" clip-path="url(#p398950f877)" style="fill: #87ceeb; opacity: 0.7; stroke: #000000; stroke-width: 0.5; stroke-linejoin: miter"/>
   </g>
   <g id="patch_4">
    <path d="M 97.038523 315.34175 
L 122.402159 315.34175 
L 122.402159 174.54175 
L 97.038523 174.54175 
z
" clip-path="url(#p398950f877)" style="fill: #87ceeb; opacity: 0.7; stroke: #000000; stroke-width: 0.5; stroke-linejoin: miter"/>
   </g>
   <g id="patch_5">
    <path d="M 122.402159 315.34175 
L 147.765795 315.34175 
L 147.765795 121.74175 
L 122.402159 121.74175 
z
" clip-path="url(#p398950f877)" style="fill: #87ceeb; opacity: 0.7; stroke: #000000; stroke-width: 0.5; stroke-linejoin: miter"/>
   </g>
   <g id="patch_6">
    <path d="M 147.765795 315.34175 
L 173.129432 315.34175 
L 173.129432 156.94175 
L 147.765795 156.94175 
z
" clip-path="url(#p398950f877)" style="fill: #87ceeb; opacity: 0.7; stroke: #000000; stroke-width: 0.5; stroke-linejoin: miter"/>
   </g>
   <g id="patch_7">
    <path d="M 173.129432 315.34175 
L 198.493068 315.34175 
L 198.493068 51.34175 
L 173.129432 51.34175 
z
" clip-path="url(#p398950f877)" style="fill: #87ceeb; opacity: 0.7; stroke: #000000; stroke-width: 0.5; stroke-linejoin: miter"/>
   </g>
   <g id="patch_8">
    <path d="M 198.493068 315.34175 
L 223.856705 315.34175 
L 223.856705 156.94175 
L 198.493068 156.94175 
z
" clip-path="url(#p398950f877)" style="fill: #87ceeb; opacity: 0.7; stroke: #000000; stroke-width: 0.5; stroke-linejoin: miter"/>
   </g>
   <g id="patch_9">
    <path d="M 223.856705 315.34175 
L 249.220341 315.34175 
L 249.220341 192.14175 
L 223.856705 192.14175 
z
" clip-path="url(#p398950f877)" style="fill: #87ceeb; opacity: 0.7; stroke: #000000; stroke-width: 0.5; stroke-linejoin: miter"/>
   </g>
   <g id="patch_10">
    <path d="M 249.220341 315.34175 
L 274.583977 315.34175 
L 274.583977 209.74175 
L 249.220341 209.74175 
z
" clip-path="url(#p398950f877)" style="fill: #87ceeb; opacity: 0.7; stroke: #000000; stroke-width: 0.5; stroke-linejoin: miter"/>
   </g>
   <g id="patch_11">
    <path d="M 274.583977 315.34175 
L 299.947614 315.34175 
L 299.947614 192.14175 
L 274.583977 192.14175 
z
" clip-path="url(#p398950f877)" style="fill: #87ceeb; opacity: 0.7; stroke: #000000; stroke-width: 0.5; stroke-linejoin: miter"/>
   </g>
   <g id="patch_12">
    <path d="M 299.947614 315.34175 
L 325.31125 315.34175 
L 325.31125 227.34175 
L 299.947614 227.34175 
z
" clip-path="url(#p398950f877)" style="fill: #87ceeb; opacity: 0.7; stroke: #000000; stroke-width: 0.5; stroke-linejoin: miter"/>
   </g>
   <g id="patch_13">
    <path d="M 325.31125 315.34175 
L 350.674886 315.34175 
L 350.674886 280.14175 
L 325.31125 280.14175 
z
" clip-path="url(#p398950f877)" style="fill: #87ceeb; opacity: 0.7; stroke: #000000; stroke-width: 0.5; stroke-linejoin: miter"/>
   </g>
   <g id="patch_14">
    <path d="M 350.674886 315.34175 
L 376.038523 315.34175 
L 376.038523 139.34175 
L 350.674886 139.34175 
z
" clip-path="url(#p398950f877)" style="fill: #87ceeb; opacity: 0.7; stroke: #000000; stroke-width: 0.5; stroke-linejoin: miter"/>
   </g>
   <g id="patch_15">
    <path d="M 376.038523 315.34175 
L 401.402159 315.34175 
L 401.402159 209.74175 
L 376.038523 209.74175 
z
" clip-path="url(#p398950f877)" style="fill: #87ceeb; opacity: 0.7; stroke: #000000; stroke-width: 0.5; stroke-linejoin: miter"/>
   </g>
   <g id="patch_16">
    <path d="M 401.402159 315.34175 
L 426.765795 315.34175 
L 426.765795 209.74175 
L 401.402159 209.74175 
z
" clip-path="url(#p398950f877)" style="fill: #87ceeb; opacity: 0.7; stroke: #000000; stroke-width: 0.5; stroke-linejoin: miter"/>
   </g>
   <g id="patch_17">
    <path d="M 426.765795 315.34175 
L 452.129432 315.34175 
L 452.129432 244.94175 
L 426.765795 244.94175 
z
" clip-path="url(#p398950f877)" style="fill: #87ceeb; opacity: 0.7; stroke: #000000; stroke-width: 0.5; stroke-linejoin: miter"/>
   </g>
   <g id="patch_18">
    <path d="M 452.129432 315.34175 
L 477.493068 315.34175 
L 477.493068 262.54175 
L 452.129432 262.54175 
z
" clip-path="url(#p398950f877)" style="fill: #87ceeb; opacity: 0.7; stroke: #000000; stroke-width: 0.5; stroke-linejoin: miter"/>
   </g>
   <g id="patch_19">
    <path d="M 477.493068 315.34175 
L 502.856705 315.34175 
L 502.856705 280.14175 
L 477.493068 280.14175 
z
" clip-path="url(#p398950f877)" style="fill: #87ceeb; opacity: 0.7; stroke: #000000; stroke-width: 0.5; stroke-linejoin: miter"/>
   </g>
   <g id="patch_20">
    <path d="M 502.856705 315.34175 
L 528.220341 315.34175 
L 528.220341 297.74175 
L 502.856705 297.74175 
z
" clip-path="url(#p398950f877)" style="fill: #87ceeb; opacity: 0.7; stroke: #000000; stroke-width: 0.5; stroke-linejoin: miter"/>
   </g>
   <g id="patch_21">
    <path d="M 528.220341 315.34175 
L 553.583977 315.34175 
L 553.583977 297.74175 
L 528.220341 297.74175 
z
" clip-path="url(#p398950f877)" style="fill: #87ceeb; opacity: 0.7; stroke: #000000; stroke-width: 0.5; stroke-linejoin: miter"/>
   </g>
   <g id="patch_22">
    <path d="M 553.583977 315.34175 
L 578.947614 315.34175 
L 578.947614 297.74175 
L 553.583977 297.74175 
z
" clip-path="url(#p398950f877)" style="fill: #87ceeb; opacity: 0.7; stroke: #000000; stroke-width: 0.5; stroke-linejoin: miter"/>
   </g>
   <g id="patch_23">
    <path d="M 46.31125 315.34175 
L 46.31125 38.14175 
" style="fill: none; stroke: #ffffff; stroke-linejoin: miter; stroke-linecap: square"/>
   </g>
   <g id="patch_24">
    <path d="M 604.31125 315.34175 
L 604.31125 38.14175 
" style="fill: none; stroke: #ffffff; stroke-linejoin: miter; stroke-linecap: square"/>
   </g>
   <g id="patch_25">
    <path d="M 46.31125 315.34175 
L 604.31125 315.34175 
" style="fill: none; stroke: #ffffff; stroke-linejoin: miter; stroke-linecap: square"/>
   </g>
   <g id="patch_26">
    <path d="M 46.31125 38.14175 
L 604.31125 38.14175 
" style="fill: none; stroke: #ffffff; stroke-linejoin: miter; stroke-linecap: square"/>
   </g>
   <g id="text_19">
    <!-- Распределение возраста респондентов -->
    <g style="fill: #262626" transform="translate(174.2935 18.14175) scale(0.144 -0.144)">
     <defs>
      <path id="DejaVuSans-420" d="M 1259 4147 
L 1259 2394 
L 2053 2394 
Q 2494 2394 2734 2622 
Q 2975 2850 2975 3272 
Q 2975 3691 2734 3919 
Q 2494 4147 2053 4147 
L 1259 4147 
z
M 628 4666 
L 2053 4666 
Q 2838 4666 3239 4311 
Q 3641 3956 3641 3272 
Q 3641 2581 3239 2228 
Q 2838 1875 2053 1875 
L 1259 1875 
L 1259 0 
L 628 0 
L 628 4666 
z
" transform="scale(0.015625)"/>
      <path id="DejaVuSans-43f" d="M 3603 3500 
L 3603 0 
L 3025 0 
L 3025 3041 
L 1159 3041 
L 1159 0 
L 581 0 
L 581 3500 
L 3603 3500 
z
" transform="scale(0.015625)"/>
      <path id="DejaVuSans-434" d="M 1384 459 
L 3053 459 
L 3053 3041 
L 1844 3041 
L 1844 2603 
Q 1844 1316 1475 628 
L 1384 459 
z
M 550 459 
Q 834 584 959 850 
Q 1266 1509 1266 2838 
L 1266 3500 
L 3631 3500 
L 3631 459 
L 4091 459 
L 4091 -884 
L 3631 -884 
L 3631 0 
L 794 0 
L 794 -884 
L 334 -884 
L 334 459 
L 550 459 
z
" transform="scale(0.015625)"/>
      <path id="DejaVuSans-43d" d="M 581 3500 
L 1159 3500 
L 1159 2072 
L 3025 2072 
L 3025 3500 
L 3603 3500 
L 3603 0 
L 3025 0 
L 3025 1613 
L 1159 1613 
L 1159 0 
L 581 0 
L 581 3500 
z
" transform="scale(0.015625)"/>
      <path id="DejaVuSans-20" transform="scale(0.015625)"/>
     </defs>
     <use xlink:href="#DejaVuSans-420"/>
     <use xlink:href="#DejaVuSans-430" transform="translate(60.302734 0)"/>
     <use xlink:href="#DejaVuSans-441" transform="translate(121.582031 0)"/>
     <use xlink:href="#DejaVuSans-43f" transform="translate(176.5625 0)"/>
     <use xlink:href="#DejaVuSans-440" transform="translate(241.943359 0)"/>
     <use xlink:href="#DejaVuSans-435" transform="translate(305.419922 0)"/>
     <use xlink:href="#DejaVuSans-434" transform="translate(366.943359 0)"/>
     <use xlink:href="#DejaVuSans-435" transform="translate(436.083984 0)"/>
     <use xlink:href="#DejaVuSans-43b" transform="translate(497.607422 0)"/>
     <use xlink:href="#DejaVuSans-435" transform="translate(561.523438 0)"/>
     <use xlink:href="#DejaVuSans-43d" transform="translate(623.046875 0)"/>
     <use xlink:href="#DejaVuSans-438" transform="translate(688.427734 0)"/>
     <use xlink:href="#DejaVuSans-435" transform="translate(753.417969 0)"/>
     <use xlink:href="#DejaVuSans-20" transform="translate(814.941406 0)"/>
     <use xlink:href="#DejaVuSans-432" transform="translate(846.728516 0)"/>
     <use xlink:href="#DejaVuSans-43e" transform="translate(905.664062 0)"/>
     <use xlink:href="#DejaVuSans-437" transform="translate(966.845703 0)"/>
     <use xlink:href="#DejaVuSans-440" transform="translate(1020.019531 0)"/>
     <use xlink:href="#DejaVuSans-430" transform="translate(1083.496094 0)"/>
     <use xlink:href="#DejaVuSans-441" transform="translate(1144.775391 0)"/>
     <use xlink:href="#DejaVuSans-442" transform="translate(1199.755859 0)"/>
     <use xlink:href="#DejaVuSans-430" transform="translate(1258.007812 0)"/>
     <use xlink:href="#DejaVuSans-20" transform="translate(1319.287109 0)"/>
     <use xlink:href="#DejaVuSans-440" transform="translate(1351.074219 0)"/>
     <use xlink:href="#DejaVuSans-435" transform="translate(1414.550781 0)"/>
     <use xlink:href="#DejaVuSans-441" transform="translate(1476.074219 0)"/>
     <use xlink:href="#DejaVuSans-43f" transform="translate(1531.054688 0)"/>
     <use xlink:href="#DejaVuSans-43e" transform="translate(1596.435547 0)"/>
     <use xlink:href="#DejaVuSans-43d" transform="translate(1657.617188 0)"/>
     <use xlink:href="#DejaVuSans-434" transform="translate(1722.998047 0)"/>
     <use xlink:href="#DejaVuSans-435" transform="translate(1792.138672 0)"/>
     <use xlink:href="#DejaVuSans-43d" transform="translate(1853.662109 0)"/>
     <use xlink:href="#DejaVuSans-442" transform="translate(1919.042969 0)"/>
     <use xlink:href="#DejaVuSans-43e" transform="translate(1977.294922 0)"/>
     <use xlink:href="#DejaVuSans-432" transform="translate(2038.476562 0)"/>
    </g>
   </g>
  </g>
 </g>
 <defs>
  <clipPath id="p398950f877">
   <rect x="46.31125" y="38.14175" width="558" height="277.2"/>
  </clipPath>
 </defs>
</svg>
